[2025-06-03 13:07:25] [INFO] Starting setup for lane 2 (IP 192.168.4.102, DISPLAY :12), attempt 1
[2025-06-03 13:07:25] [INFO] Checking network reachability for 192.168.4.102
[2025-06-03 13:07:25] [WARN] 192.168.4.102 unreachable, retrying in 5 seconds...
[2025-06-03 13:07:31] [WARN] 192.168.4.102 unreachable, retrying in 5 seconds...
[2025-06-03 13:07:36] [INFO] Generated XAUTHORITY file at /tmp/.Xauthority.zDhaTY
[2025-06-03 13:07:36] [INFO] Starting Xvfb on display :12
[2025-06-03 13:07:36] [INFO] Xvfb started with PID 1401
The XKEYBOARD keymap compiler (xkbcomp) reports:
> Warning:          Could not resolve keysym XF86CameraAccessEnable
> Warning:          Could not resolve keysym XF86CameraAccessDisable
> Warning:          Could not resolve keysym XF86CameraAccessToggle
> Warning:          Could not resolve keysym XF86NextElement
> Warning:          Could not resolve keysym XF86PreviousElement
> Warning:          Could not resolve keysym XF86AutopilotEngageToggle
> Warning:          Could not resolve keysym XF86MarkWaypoint
> Warning:          Could not resolve keysym XF86Sos
> Warning:          Could not resolve keysym XF86NavChart
> Warning:          Could not resolve keysym XF86FishingChart
> Warning:          Could not resolve keysym XF86SingleRangeRadar
> Warning:          Could not resolve keysym XF86DualRangeRadar
> Warning:          Could not resolve keysym XF86RadarOverlay
> Warning:          Could not resolve keysym XF86TraditionalSonar
> Warning:          Could not resolve keysym XF86ClearvuSonar
> Warning:          Could not resolve keysym XF86SidevuSonar
> Warning:          Could not resolve keysym XF86NavInfo
Errors from xkbcomp are not fatal to the X server
[2025-06-03 13:07:38] [INFO] Generating xauth entry for :12
[2025-06-03 13:07:38] [INFO] xauth entry generated
[2025-06-03 13:07:38] [INFO] DISPLAY set to :12
[2025-06-03 13:07:38] [INFO] Starting vncviewer on 192.168.4.102 (lane 2)
[2025-06-03 13:07:38] [INFO] vncviewer started with PID 1437
The XKEYBOARD keymap compiler (xkbcomp) reports:
> Warning:          Could not resolve keysym XF86CameraAccessEnable
> Warning:          Could not resolve keysym XF86CameraAccessDisable
> Warning:          Could not resolve keysym XF86CameraAccessToggle
> Warning:          Could not resolve keysym XF86NextElement
> Warning:          Could not resolve keysym XF86PreviousElement
> Warning:          Could not resolve keysym XF86AutopilotEngageToggle
> Warning:          Could not resolve keysym XF86MarkWaypoint
> Warning:          Could not resolve keysym XF86Sos
> Warning:          Could not resolve keysym XF86NavChart
> Warning:          Could not resolve keysym XF86FishingChart
> Warning:          Could not resolve keysym XF86SingleRangeRadar
> Warning:          Could not resolve keysym XF86DualRangeRadar
> Warning:          Could not resolve keysym XF86RadarOverlay
> Warning:          Could not resolve keysym XF86TraditionalSonar
> Warning:          Could not resolve keysym XF86ClearvuSonar
> Warning:          Could not resolve keysym XF86SidevuSonar
> Warning:          Could not resolve keysym XF86NavInfo
Errors from xkbcomp are not fatal to the X server

TigerVNC Viewer v1.13.1
Built on: 2024-04-01 08:26
Copyright (C) 1999-2022 TigerVNC Team and many others (see README.rst)
See https://www.tigervnc.org for information on TigerVNC.

Tue Jun  3 13:07:38 2025
 DecodeManager: Detected 4 CPU core(s)
 DecodeManager: Creating 4 decoder thread(s)
 CConn:       Connected to host 192.168.4.102 port 5900
 CConnection: Server supports RFB protocol version 3.8
 CConnection: Using RFB protocol version 3.8
 CConnection: Choosing security type VncAuth(2)
 DesktopWindow: Adjusting window size to avoid accidental full-screen request
 CConn:       Using pixel format depth 24 (32bpp) little-endian rgb888
XRequest.131: BadWindow (invalid Window parameter) 0x200005

Tue Jun  3 13:07:41 2025
 CConn:       Throughput 15989 kbit/s - changing to quality 6
[2025-06-03 13:07:43] [INFO] Starting ffmpeg capturing :12 and streaming to /home/user/vnc-hls/hls/lane2/stream.m3u8
Input #0, x11grab, from ':12':
  Duration: N/A, start: 1748970463.459199, bitrate: 122880 kb/s
  Stream #0:0: Video: rawvideo (BGR[0] / 0x524742), bgr0, 480x800, 122880 kb/s, 10 fps, 10 tbr, 1000k tbn
[out#0/hls @ 0x64b7b0cad8c0] Codec AVOption sc_threshold (Scene change threshold) has not been used for any stream. The most likely reason is either wrong type (e.g. a video option with no video streams) or that it is a private option of some encoder which was not actually used for any stream.
Stream mapping:
  Stream #0:0 -> #0:0 (rawvideo (native) -> h264 (h264_vaapi))
Press [q] to stop, [?] for help
Output #0, hls, to '/home/user/vnc-hls/hls/lane2/stream.m3u8':
  Metadata:
    encoder         : Lavf60.16.100
  Stream #0:0: Video: h264 (High), vaapi(tv, progressive), 480x800, q=2-31, 1000 kb/s, 10 fps, 90k tbn
    Metadata:
      encoder         : Lavc60.31.102 h264_vaapi
frame=    0 fps=0.0 q=0.0 size=       0kB time=N/A bitrate=N/A speed=N/A    frame=    7 fps=0.0 q=-0.0 size=N/A time=00:00:00.60 bitrate=N/A speed=1.01x    frame=   12 fps= 11 q=-0.0 size=N/A time=00:00:01.10 bitrate=N/A speed=   1x    frame=   18 fps= 11 q=-0.0 size=N/A time=00:00:01.70 bitrate=N/A speed=   1x    frame=   24 fps= 10 q=-0.0 size=N/A time=00:00:02.30 bitrate=N/A speed=   1x    frame=   29 fps= 10 q=-0.0 size=N/A time=00:00:02.80 bitrate=N/A speed=   1x    frame=   35 fps= 10 q=-0.0 size=N/A time=00:00:03.40 bitrate=N/A speed=   1x    frame=   41 fps= 10 q=-0.0 size=N/A time=00:00:04.00 bitrate=N/A speed=   1x    frame=   47 fps= 10 q=-0.0 size=N/A time=00:00:04.60 bitrate=N/A speed=   1x    frame=   53 fps= 10 q=-0.0 size=N/A time=00:00:05.20 bitrate=N/A speed=   1x    frame=   58 fps= 10 q=-0.0 size=N/A time=00:00:05.70 bitrate=N/A speed=   1x    [hls @ 0x64b7b0cae580] Opening '/home/user/vnc-hls/hls/lane2/segment_20250603-130743.ts' for writing
[hls @ 0x64b7b0cae580] Opening '/home/user/vnc-hls/hls/lane2/stream.m3u8.tmp' for writing
frame=   63 fps= 10 q=-0.0 size=N/A time=00:00:06.20 bitrate=N/A speed=   1x    frame=   69 fps= 10 q=-0.0 size=N/A time=00:00:06.80 bitrate=N/A speed=   1x    frame=   75 fps= 10 q=-0.0 size=N/A time=00:00:07.40 bitrate=N/A speed=   1x    frame=   80 fps= 10 q=-0.0 size=N/A time=00:00:07.90 bitrate=N/A speed=   1x    frame=   86 fps= 10 q=-0.0 size=N/A time=00:00:08.50 bitrate=N/A speed=   1x    [hls @ 0x64b7b0cae580] Opening '/home/user/vnc-hls/hls/lane2/segment_20250603-130749.ts' for writing
[hls @ 0x64b7b0cae580] Opening '/home/user/vnc-hls/hls/lane2/stream.m3u8.tmp' for writing
frame=   91 fps= 10 q=-0.0 size=N/A time=00:00:09.00 bitrate=N/A speed=   1x    frame=   97 fps= 10 q=-0.0 size=N/A time=00:00:09.60 bitrate=N/A speed=   1x    frame=  103 fps= 10 q=-0.0 size=N/A time=00:00:10.20 bitrate=N/A speed=   1x    frame=  109 fps= 10 q=-0.0 size=N/A time=00:00:10.80 bitrate=N/A speed=   1x    frame=  115 fps= 10 q=-0.0 size=N/A time=00:00:11.40 bitrate=N/A speed=   1x    [hls @ 0x64b7b0cae580] Opening '/home/user/vnc-hls/hls/lane2/segment_20250603-130752.ts' for writing
[hls @ 0x64b7b0cae580] Opening '/home/user/vnc-hls/hls/lane2/stream.m3u8.tmp' for writing
frame=  121 fps= 10 q=-0.0 size=N/A time=00:00:12.00 bitrate=N/A speed=   1x    frame=  127 fps= 10 q=-0.0 size=N/A time=00:00:12.60 bitrate=N/A speed=   1x    frame=  133 fps= 10 q=-0.0 size=N/A time=00:00:13.20 bitrate=N/A speed=   1x    frame=  138 fps= 10 q=-0.0 size=N/A time=00:00:13.70 bitrate=N/A speed=   1x    frame=  143 fps= 10 q=-0.0 size=N/A time=00:00:14.20 bitrate=N/A speed=   1x    frame=  149 fps= 10 q=-0.0 size=N/A time=00:00:14.80 bitrate=N/A speed=   1x    frame=  155 fps= 10 q=-0.0 size=N/A time=00:00:15.40 bitrate=N/A speed=   1x    frame=  161 fps= 10 q=-0.0 size=N/A time=00:00:16.00 bitrate=N/A speed=   1x    frame=  167 fps= 10 q=-0.0 size=N/A time=00:00:16.60 bitrate=N/A speed=   1x    frame=  172 fps= 10 q=-0.0 size=N/A time=00:00:17.10 bitrate=N/A speed=   1x    frame=  178 fps= 10 q=-0.0 size=N/A time=00:00:17.70 bitrate=N/A speed=   1x    [hls @ 0x64b7b0cae580] Opening '/home/user/vnc-hls/hls/lane2/segment_20250603-130755.ts' for writing
[hls @ 0x64b7b0cae580] Opening '/home/user/vnc-hls/hls/lane2/stream.m3u8.tmp' for writing
frame=  184 fps= 10 q=-0.0 size=N/A time=00:00:18.30 bitrate=N/A speed=   1x    frame=  189 fps= 10 q=-0.0 size=N/A time=00:00:18.80 bitrate=N/A speed=   1x    frame=  195 fps= 10 q=-0.0 size=N/A time=00:00:19.40 bitrate=N/A speed=   1x    frame=  200 fps= 10 q=-0.0 size=N/A time=00:00:19.90 bitrate=N/A speed=   1x    frame=  206 fps= 10 q=-0.0 size=N/A time=00:00:20.50 bitrate=N/A speed=   1x    [hls @ 0x64b7b0cae580] Opening '/home/user/vnc-hls/hls/lane2/segment_20250603-130801.ts' for writing
[hls @ 0x64b7b0cae580] Opening '/home/user/vnc-hls/hls/lane2/stream.m3u8.tmp' for writing
frame=  212 fps= 10 q=-0.0 size=N/A time=00:00:21.10 bitrate=N/A speed=   1x    frame=  218 fps= 10 q=-0.0 size=N/A time=00:00:21.70 bitrate=N/A speed=   1x    frame=  223 fps= 10 q=-0.0 size=N/A time=00:00:22.20 bitrate=N/A speed=   1x    frame=  229 fps= 10 q=-0.0 size=N/A time=00:00:22.80 bitrate=N/A speed=   1x    frame=  235 fps= 10 q=-0.0 size=N/A time=00:00:23.40 bitrate=N/A speed=   1x    [hls @ 0x64b7b0cae580] Opening '/home/user/vnc-hls/hls/lane2/segment_20250603-130804.ts' for writing
[hls @ 0x64b7b0cae580] Opening '/home/user/vnc-hls/hls/lane2/stream.m3u8.tmp' for writing
frame=  241 fps= 10 q=-0.0 size=N/A time=00:00:24.00 bitrate=N/A speed=   1x    frame=  246 fps= 10 q=-0.0 size=N/A time=00:00:24.50 bitrate=N/A speed=   1x    frame=  252 fps= 10 q=-0.0 size=N/A time=00:00:25.10 bitrate=N/A speed=   1x    frame=  258 fps= 10 q=-0.0 size=N/A time=00:00:25.70 bitrate=N/A speed=   1x    frame=  263 fps= 10 q=-0.0 size=N/A time=00:00:26.20 bitrate=N/A speed=   1x    frame=  269 fps= 10 q=-0.0 size=N/A time=00:00:26.80 bitrate=N/A speed=   1x    frame=  275 fps= 10 q=-0.0 size=N/A time=00:00:27.40 bitrate=N/A speed=   1x    frame=  281 fps= 10 q=-0.0 size=N/A time=00:00:28.00 bitrate=N/A speed=   1x    frame=  287 fps= 10 q=-0.0 size=N/A time=00:00:28.60 bitrate=N/A speed=   1x    frame=  293 fps= 10 q=-0.0 size=N/A time=00:00:29.20 bitrate=N/A speed=   1x    frame=  299 fps= 10 q=-0.0 size=N/A time=00:00:29.80 bitrate=N/A speed=   1x    [hls @ 0x64b7b0cae580] Opening '/home/user/vnc-hls/hls/lane2/segment_20250603-130807.ts' for writing
[hls @ 0x64b7b0cae580] Opening '/home/user/vnc-hls/hls/lane2/stream.m3u8.tmp' for writing
frame=  305 fps= 10 q=-0.0 size=N/A time=00:00:30.40 bitrate=N/A speed=   1x    frame=  311 fps= 10 q=-0.0 size=N/A time=00:00:31.00 bitrate=N/A speed=   1x    frame=  317 fps= 10 q=-0.0 size=N/A time=00:00:31.60 bitrate=N/A speed=   1x    frame=  322 fps= 10 q=-0.0 size=N/A time=00:00:32.10 bitrate=N/A speed=   1x    frame=  328 fps= 10 q=-0.0 size=N/A time=00:00:32.70 bitrate=N/A speed=   1x    [hls @ 0x64b7b0cae580] Opening '/home/user/vnc-hls/hls/lane2/segment_20250603-130813.ts' for writing
[hls @ 0x64b7b0cae580] Opening '/home/user/vnc-hls/hls/lane2/stream.m3u8.tmp' for writing
frame=  334 fps= 10 q=-0.0 size=N/A time=00:00:33.30 bitrate=N/A speed=   1x    frame=  339 fps= 10 q=-0.0 size=N/A time=00:00:33.80 bitrate=N/A speed=   1x    frame=  344 fps= 10 q=-0.0 size=N/A time=00:00:34.30 bitrate=N/A speed=   1x    frame=  350 fps= 10 q=-0.0 size=N/A time=00:00:34.90 bitrate=N/A speed=   1x    frame=  355 fps= 10 q=-0.0 size=N/A time=00:00:35.40 bitrate=N/A speed=   1x    [hls @ 0x64b7b0cae580] Opening '/home/user/vnc-hls/hls/lane2/segment_20250603-130816.ts' for writing
[hls @ 0x64b7b0cae580] Opening '/home/user/vnc-hls/hls/lane2/stream.m3u8.tmp' for writing
frame=  361 fps= 10 q=-0.0 size=N/A time=00:00:36.00 bitrate=N/A speed=   1x    frame=  367 fps= 10 q=-0.0 size=N/A time=00:00:36.60 bitrate=N/A speed=   1x    frame=  372 fps= 10 q=-0.0 size=N/A time=00:00:37.10 bitrate=N/A speed=   1x    frame=  377 fps= 10 q=-0.0 size=N/A time=00:00:37.60 bitrate=N/A speed=   1x    frame=  383 fps= 10 q=-0.0 size=N/A time=00:00:38.20 bitrate=N/A speed=   1x    frame=  389 fps= 10 q=-0.0 size=N/A time=00:00:38.80 bitrate=N/A speed=   1x    frame=  395 fps= 10 q=-0.0 size=N/A time=00:00:39.40 bitrate=N/A speed=   1x    frame=  400 fps= 10 q=-0.0 size=N/A time=00:00:39.90 bitrate=N/A speed=   1x    frame=  406 fps= 10 q=-0.0 size=N/A time=00:00:40.50 bitrate=N/A speed=   1x    frame=  411 fps= 10 q=-0.0 size=N/A time=00:00:41.00 bitrate=N/A speed=   1x    frame=  417 fps= 10 q=-0.0 size=N/A time=00:00:41.60 bitrate=N/A speed=   1x    [hls @ 0x64b7b0cae580] Opening '/home/user/vnc-hls/hls/lane2/segment_20250603-130819.ts' for writing
[hls @ 0x64b7b0cae580] Opening '/home/user/vnc-hls/hls/lane2/stream.m3u8.tmp' for writing
frame=  423 fps= 10 q=-0.0 size=N/A time=00:00:42.20 bitrate=N/A speed=   1x    frame=  429 fps= 10 q=-0.0 size=N/A time=00:00:42.80 bitrate=N/A speed=   1x    frame=  435 fps= 10 q=-0.0 size=N/A time=00:00:43.40 bitrate=N/A speed=   1x    frame=  441 fps= 10 q=-0.0 size=N/A time=00:00:44.00 bitrate=N/A speed=   1x    frame=  447 fps= 10 q=-0.0 size=N/A time=00:00:44.60 bitrate=N/A speed=   1x    [hls @ 0x64b7b0cae580] Opening '/home/user/vnc-hls/hls/lane2/segment_20250603-130825.ts' for writing
[hls @ 0x64b7b0cae580] Opening '/home/user/vnc-hls/hls/lane2/stream.m3u8.tmp' for writing
frame=  453 fps= 10 q=-0.0 size=N/A time=00:00:45.20 bitrate=N/A speed=   1x    frame=  458 fps= 10 q=-0.0 size=N/A time=00:00:45.70 bitrate=N/A speed=   1x    frame=  463 fps= 10 q=-0.0 size=N/A time=00:00:46.20 bitrate=N/A speed=   1x    frame=  468 fps= 10 q=-0.0 size=N/A time=00:00:46.70 bitrate=N/A speed=   1x    frame=  473 fps= 10 q=-0.0 size=N/A time=00:00:47.20 bitrate=N/A speed=   1x    frame=  479 fps= 10 q=-0.0 size=N/A time=00:00:47.80 bitrate=N/A speed=   1x    [hls @ 0x64b7b0cae580] Opening '/home/user/vnc-hls/hls/lane2/segment_20250603-130828.ts' for writing
[hls @ 0x64b7b0cae580] Opening '/home/user/vnc-hls/hls/lane2/stream.m3u8.tmp' for writing
frame=  485 fps= 10 q=-0.0 size=N/A time=00:00:48.40 bitrate=N/A speed=   1x    frame=  491 fps= 10 q=-0.0 size=N/A time=00:00:49.00 bitrate=N/A speed=   1x    frame=  497 fps= 10 q=-0.0 size=N/A time=00:00:49.60 bitrate=N/A speed=   1x    frame=  502 fps= 10 q=-0.0 size=N/A time=00:00:50.10 bitrate=N/A speed=   1x    frame=  508 fps= 10 q=-0.0 size=N/A time=00:00:50.70 bitrate=N/A speed=   1x    frame=  513 fps= 10 q=-0.0 size=N/A time=00:00:51.20 bitrate=N/A speed=   1x    frame=  519 fps= 10 q=-0.0 size=N/A time=00:00:51.80 bitrate=N/A speed=   1x    frame=  524 fps= 10 q=-0.0 size=N/A time=00:00:52.30 bitrate=N/A speed=   1x    frame=  529 fps= 10 q=-0.0 size=N/A time=00:00:52.80 bitrate=N/A speed=   1x    frame=  535 fps= 10 q=-0.0 size=N/A time=00:00:53.40 bitrate=N/A speed=   1x    frame=  540 fps= 10 q=-0.0 size=N/A time=00:00:53.90 bitrate=N/A speed=   1x    [hls @ 0x64b7b0cae580] Opening '/home/user/vnc-hls/hls/lane2/segment_20250603-130831.ts' for writing
[hls @ 0x64b7b0cae580] Opening '/home/user/vnc-hls/hls/lane2/stream.m3u8.tmp' for writing
frame=  546 fps= 10 q=-0.0 size=N/A time=00:00:54.50 bitrate=N/A speed=   1x    frame=  552 fps= 10 q=-0.0 size=N/A time=00:00:55.10 bitrate=N/A speed=   1x    frame=  557 fps= 10 q=-0.0 size=N/A time=00:00:55.60 bitrate=N/A speed=   1x    frame=  562 fps= 10 q=-0.0 size=N/A time=00:00:56.10 bitrate=N/A speed=   1x    frame=  568 fps= 10 q=-0.0 size=N/A time=00:00:56.70 bitrate=N/A speed=   1x    [hls @ 0x64b7b0cae580] Opening '/home/user/vnc-hls/hls/lane2/segment_20250603-130837.ts' for writing
[hls @ 0x64b7b0cae580] Opening '/home/user/vnc-hls/hls/lane2/stream.m3u8.tmp' for writing
frame=  574 fps= 10 q=-0.0 size=N/A time=00:00:57.30 bitrate=N/A speed=   1x    frame=  579 fps= 10 q=-0.0 size=N/A time=00:00:57.80 bitrate=N/A speed=   1x    frame=  585 fps= 10 q=-0.0 size=N/A time=00:00:58.40 bitrate=N/A speed=   1x    frame=  590 fps= 10 q=-0.0 size=N/A time=00:00:58.90 bitrate=N/A speed=   1x    frame=  595 fps= 10 q=-0.0 size=N/A time=00:00:59.40 bitrate=N/A speed=   1x    [hls @ 0x64b7b0cae580] Opening '/home/user/vnc-hls/hls/lane2/segment_20250603-130840.ts' for writing
[hls @ 0x64b7b0cae580] Opening '/home/user/vnc-hls/hls/lane2/stream.m3u8.tmp' for writing
frame=  601 fps= 10 q=-0.0 size=N/A time=00:01:00.00 bitrate=N/A speed=   1x    frame=  607 fps= 10 q=-0.0 size=N/A time=00:01:00.60 bitrate=N/A speed=   1x    frame=  613 fps= 10 q=-0.0 size=N/A time=00:01:01.20 bitrate=N/A speed=   1x    frame=  619 fps= 10 q=-0.0 size=N/A time=00:01:01.80 bitrate=N/A speed=   1x    frame=  625 fps= 10 q=-0.0 size=N/A time=00:01:02.40 bitrate=N/A speed=   1x    frame=  630 fps= 10 q=-0.0 size=N/A time=00:01:02.90 bitrate=N/A speed=   1x    frame=  636 fps= 10 q=-0.0 size=N/A time=00:01:03.50 bitrate=N/A speed=   1x    frame=  641 fps= 10 q=-0.0 size=N/A time=00:01:04.00 bitrate=N/A speed=   1x    frame=  647 fps= 10 q=-0.0 size=N/A time=00:01:04.60 bitrate=N/A speed=   1x    frame=  653 fps= 10 q=-0.0 size=N/A time=00:01:05.20 bitrate=N/A speed=   1x    frame=  658 fps= 10 q=-0.0 size=N/A time=00:01:05.70 bitrate=N/A speed=   1x    [hls @ 0x64b7b0cae580] Opening '/home/user/vnc-hls/hls/lane2/segment_20250603-130843.ts' for writing
[hls @ 0x64b7b0cae580] Opening '/home/user/vnc-hls/hls/lane2/stream.m3u8.tmp' for writing
frame=  664 fps= 10 q=-0.0 size=N/A time=00:01:06.30 bitrate=N/A speed=   1x    frame=  669 fps= 10 q=-0.0 size=N/A time=00:01:06.80 bitrate=N/A speed=   1x    frame=  675 fps= 10 q=-0.0 size=N/A time=00:01:07.40 bitrate=N/A speed=   1x    frame=  680 fps= 10 q=-0.0 size=N/A time=00:01:07.90 bitrate=N/A speed=   1x    frame=  686 fps= 10 q=-0.0 size=N/A time=00:01:08.50 bitrate=N/A speed=   1x    [hls @ 0x64b7b0cae580] Opening '/home/user/vnc-hls/hls/lane2/segment_20250603-130849.ts' for writing
[hls @ 0x64b7b0cae580] Opening '/home/user/vnc-hls/hls/lane2/stream.m3u8.tmp' for writing
frame=  692 fps= 10 q=-0.0 size=N/A time=00:01:09.10 bitrate=N/A speed=   1x    frame=  698 fps= 10 q=-0.0 size=N/A time=00:01:09.70 bitrate=N/A speed=   1x    frame=  703 fps= 10 q=-0.0 size=N/A time=00:01:10.20 bitrate=N/A speed=   1x    frame=  709 fps= 10 q=-0.0 size=N/A time=00:01:10.80 bitrate=N/A speed=   1x    frame=  715 fps= 10 q=-0.0 size=N/A time=00:01:11.40 bitrate=N/A speed=   1x    frame=  720 fps= 10 q=-0.0 size=N/A time=00:01:11.90 bitrate=N/A speed=   1x    [hls @ 0x64b7b0cae580] Opening '/home/user/vnc-hls/hls/lane2/segment_20250603-130852.ts' for writing
[hls @ 0x64b7b0cae580] Opening '/home/user/vnc-hls/hls/lane2/stream.m3u8.tmp' for writing
frame=  725 fps= 10 q=-0.0 size=N/A time=00:01:12.40 bitrate=N/A speed=   1x    frame=  731 fps= 10 q=-0.0 size=N/A time=00:01:13.00 bitrate=N/A speed=   1x    frame=  737 fps= 10 q=-0.0 size=N/A time=00:01:13.60 bitrate=N/A speed=   1x    frame=  742 fps= 10 q=-0.0 size=N/A time=00:01:14.10 bitrate=N/A speed=   1x    frame=  748 fps= 10 q=-0.0 size=N/A time=00:01:14.70 bitrate=N/A speed=   1x    frame=  754 fps= 10 q=-0.0 size=N/A time=00:01:15.30 bitrate=N/A speed=   1x    frame=  760 fps= 10 q=-0.0 size=N/A time=00:01:15.90 bitrate=N/A speed=   1x    frame=  765 fps= 10 q=-0.0 size=N/A time=00:01:16.40 bitrate=N/A speed=   1x    frame=  771 fps= 10 q=-0.0 size=N/A time=00:01:17.00 bitrate=N/A speed=   1x    frame=  776 fps= 10 q=-0.0 size=N/A time=00:01:17.50 bitrate=N/A speed=   1x    [hls @ 0x64b7b0cae580] Opening '/home/user/vnc-hls/hls/lane2/segment_20250603-130855.ts' for writing
[hls @ 0x64b7b0cae580] Opening '/home/user/vnc-hls/hls/lane2/stream.m3u8.tmp' for writing
frame=  782 fps= 10 q=-0.0 size=N/A time=00:01:18.10 bitrate=N/A speed=   1x    frame=  788 fps= 10 q=-0.0 size=N/A time=00:01:18.70 bitrate=N/A speed=   1x    frame=  793 fps= 10 q=-0.0 size=N/A time=00:01:19.20 bitrate=N/A speed=   1x    frame=  799 fps= 10 q=-0.0 size=N/A time=00:01:19.80 bitrate=N/A speed=   1x    frame=  805 fps= 10 q=-0.0 size=N/A time=00:01:20.40 bitrate=N/A speed=   1x    [hls @ 0x64b7b0cae580] Opening '/home/user/vnc-hls/hls/lane2/segment_20250603-130901.ts' for writing
[hls @ 0x64b7b0cae580] Opening '/home/user/vnc-hls/hls/lane2/stream.m3u8.tmp' for writing
frame=  811 fps= 10 q=-0.0 size=N/A time=00:01:21.00 bitrate=N/A speed=   1x    frame=  817 fps= 10 q=-0.0 size=N/A time=00:01:21.60 bitrate=N/A speed=   1x    frame=  823 fps= 10 q=-0.0 size=N/A time=00:01:22.20 bitrate=N/A speed=   1x    frame=  828 fps= 10 q=-0.0 size=N/A time=00:01:22.70 bitrate=N/A speed=   1x    frame=  834 fps= 10 q=-0.0 size=N/A time=00:01:23.30 bitrate=N/A speed=   1x    frame=  840 fps= 10 q=-0.0 size=N/A time=00:01:23.90 bitrate=N/A speed=   1x    [hls @ 0x64b7b0cae580] Opening '/home/user/vnc-hls/hls/lane2/segment_20250603-130904.ts' for writing
[hls @ 0x64b7b0cae580] Opening '/home/user/vnc-hls/hls/lane2/stream.m3u8.tmp' for writing
frame=  845 fps= 10 q=-0.0 size=N/A time=00:01:24.40 bitrate=N/A speed=   1x    frame=  851 fps= 10 q=-0.0 size=N/A time=00:01:25.00 bitrate=N/A speed=   1x    frame=  857 fps= 10 q=-0.0 size=N/A time=00:01:25.60 bitrate=N/A speed=   1x    frame=  862 fps= 10 q=-0.0 size=N/A time=00:01:26.10 bitrate=N/A speed=   1x    frame=  868 fps= 10 q=-0.0 size=N/A time=00:01:26.70 bitrate=N/A speed=   1x    frame=  874 fps= 10 q=-0.0 size=N/A time=00:01:27.30 bitrate=N/A speed=   1x    frame=  879 fps= 10 q=-0.0 size=N/A time=00:01:27.80 bitrate=N/A speed=   1x    frame=  884 fps= 10 q=-0.0 size=N/A time=00:01:28.30 bitrate=N/A speed=   1x    frame=  890 fps= 10 q=-0.0 size=N/A time=00:01:28.90 bitrate=N/A speed=   1x    frame=  896 fps= 10 q=-0.0 size=N/A time=00:01:29.50 bitrate=N/A speed=   1x    [hls @ 0x64b7b0cae580] Opening '/home/user/vnc-hls/hls/lane2/segment_20250603-130907.ts' for writing
[hls @ 0x64b7b0cae580] Opening '/home/user/vnc-hls/hls/lane2/stream.m3u8.tmp' for writing
frame=  902 fps= 10 q=-0.0 size=N/A time=00:01:30.10 bitrate=N/A speed=   1x    frame=  908 fps= 10 q=-0.0 size=N/A time=00:01:30.70 bitrate=N/A speed=   1x    frame=  914 fps= 10 q=-0.0 size=N/A time=00:01:31.30 bitrate=N/A speed=   1x    frame=  920 fps= 10 q=-0.0 size=N/A time=00:01:31.90 bitrate=N/A speed=   1x    frame=  925 fps= 10 q=-0.0 size=N/A time=00:01:32.40 bitrate=N/A speed=   1x    [hls @ 0x64b7b0cae580] Opening '/home/user/vnc-hls/hls/lane2/segment_20250603-130913.ts' for writing
[hls @ 0x64b7b0cae580] Opening '/home/user/vnc-hls/hls/lane2/stream.m3u8.tmp' for writing
frame=  931 fps= 10 q=-0.0 size=N/A time=00:01:33.00 bitrate=N/A speed=   1x    frame=  936 fps= 10 q=-0.0 size=N/A time=00:01:33.50 bitrate=N/A speed=   1x    frame=  942 fps= 10 q=-0.0 size=N/A time=00:01:34.10 bitrate=N/A speed=   1x    frame=  948 fps= 10 q=-0.0 size=N/A time=00:01:34.70 bitrate=N/A speed=   1x    frame=  954 fps= 10 q=-0.0 size=N/A time=00:01:35.30 bitrate=N/A speed=   1x    frame=  960 fps= 10 q=-0.0 size=N/A time=00:01:35.90 bitrate=N/A speed=   1x    [hls @ 0x64b7b0cae580] Opening '/home/user/vnc-hls/hls/lane2/segment_20250603-130916.ts' for writing
[hls @ 0x64b7b0cae580] Opening '/home/user/vnc-hls/hls/lane2/stream.m3u8.tmp' for writing
frame=  966 fps= 10 q=-0.0 size=N/A time=00:01:36.50 bitrate=N/A speed=   1x    frame=  971 fps= 10 q=-0.0 size=N/A time=00:01:37.00 bitrate=N/A speed=   1x    frame=  977 fps= 10 q=-0.0 size=N/A time=00:01:37.60 bitrate=N/A speed=   1x    frame=  982 fps= 10 q=-0.0 size=N/A time=00:01:38.10 bitrate=N/A speed=   1x    frame=  987 fps= 10 q=-0.0 size=N/A time=00:01:38.60 bitrate=N/A speed=   1x    frame=  993 fps= 10 q=-0.0 size=N/A time=00:01:39.20 bitrate=N/A speed=   1x    frame=  998 fps= 10 q=-0.0 size=N/A time=00:01:39.70 bitrate=N/A speed=   1x    frame= 1004 fps= 10 q=-0.0 size=N/A time=00:01:40.30 bitrate=N/A speed=   1x    frame= 1009 fps= 10 q=-0.0 size=N/A time=00:01:40.80 bitrate=N/A speed=   1x    frame= 1014 fps= 10 q=-0.0 size=N/A time=00:01:41.30 bitrate=N/A speed=   1x    frame= 1020 fps= 10 q=-0.0 size=N/A time=00:01:41.90 bitrate=N/A speed=   1x    [hls @ 0x64b7b0cae580] Opening '/home/user/vnc-hls/hls/lane2/segment_20250603-130919.ts' for writing
[hls @ 0x64b7b0cae580] Opening '/home/user/vnc-hls/hls/lane2/stream.m3u8.tmp' for writing
frame= 1026 fps= 10 q=-0.0 size=N/A time=00:01:42.50 bitrate=N/A speed=   1x    frame= 1031 fps= 10 q=-0.0 size=N/A time=00:01:43.00 bitrate=N/A speed=   1x    frame= 1037 fps= 10 q=-0.0 size=N/A time=00:01:43.60 bitrate=N/A speed=   1x    frame= 1042 fps= 10 q=-0.0 size=N/A time=00:01:44.10 bitrate=N/A speed=   1x    frame= 1048 fps= 10 q=-0.0 size=N/A time=00:01:44.70 bitrate=N/A speed=   1x    [hls @ 0x64b7b0cae580] Opening '/home/user/vnc-hls/hls/lane2/segment_20250603-130925.ts' for writing
[hls @ 0x64b7b0cae580] Opening '/home/user/vnc-hls/hls/lane2/stream.m3u8.tmp' for writing
frame= 1054 fps= 10 q=-0.0 size=N/A time=00:01:45.30 bitrate=N/A speed=   1x    frame= 1060 fps= 10 q=-0.0 size=N/A time=00:01:45.90 bitrate=N/A speed=   1x    frame= 1066 fps= 10 q=-0.0 size=N/A time=00:01:46.50 bitrate=N/A speed=   1x    frame= 1072 fps= 10 q=-0.0 size=N/A time=00:01:47.10 bitrate=N/A speed=   1x    frame= 1078 fps= 10 q=-0.0 size=N/A time=00:01:47.70 bitrate=N/A speed=   1x    [hls @ 0x64b7b0cae580] Opening '/home/user/vnc-hls/hls/lane2/segment_20250603-130928.ts' for writing
[hls @ 0x64b7b0cae580] Opening '/home/user/vnc-hls/hls/lane2/stream.m3u8.tmp' for writing
frame= 1084 fps= 10 q=-0.0 size=N/A time=00:01:48.30 bitrate=N/A speed=   1x    frame= 1090 fps= 10 q=-0.0 size=N/A time=00:01:48.90 bitrate=N/A speed=   1x    frame= 1095 fps= 10 q=-0.0 size=N/A time=00:01:49.40 bitrate=N/A speed=   1x    frame= 1101 fps= 10 q=-0.0 size=N/A time=00:01:50.00 bitrate=N/A speed=   1x    frame= 1107 fps= 10 q=-0.0 size=N/A time=00:01:50.60 bitrate=N/A speed=   1x    frame= 1112 fps= 10 q=-0.0 size=N/A time=00:01:51.10 bitrate=N/A speed=   1x    frame= 1118 fps= 10 q=-0.0 size=N/A time=00:01:51.70 bitrate=N/A speed=   1x    frame= 1124 fps= 10 q=-0.0 size=N/A time=00:01:52.30 bitrate=N/A speed=   1x    frame= 1129 fps= 10 q=-0.0 size=N/A time=00:01:52.80 bitrate=N/A speed=   1x    frame= 1134 fps= 10 q=-0.0 size=N/A time=00:01:53.30 bitrate=N/A speed=   1x    frame= 1140 fps= 10 q=-0.0 size=N/A time=00:01:53.90 bitrate=N/A speed=   1x    [hls @ 0x64b7b0cae580] Opening '/home/user/vnc-hls/hls/lane2/segment_20250603-130931.ts' for writing
[hls @ 0x64b7b0cae580] Opening '/home/user/vnc-hls/hls/lane2/stream.m3u8.tmp' for writing
frame= 1145 fps= 10 q=-0.0 size=N/A time=00:01:54.40 bitrate=N/A speed=   1x    frame= 1151 fps= 10 q=-0.0 size=N/A time=00:01:55.00 bitrate=N/A speed=   1x    frame= 1156 fps= 10 q=-0.0 size=N/A time=00:01:55.50 bitrate=N/A speed=   1x    frame= 1162 fps= 10 q=-0.0 size=N/A time=00:01:56.10 bitrate=N/A speed=   1x    frame= 1167 fps= 10 q=-0.0 size=N/A time=00:01:56.60 bitrate=N/A speed=   1x    [hls @ 0x64b7b0cae580] Opening '/home/user/vnc-hls/hls/lane2/segment_20250603-130937.ts' for writing
[hls @ 0x64b7b0cae580] Opening '/home/user/vnc-hls/hls/lane2/stream.m3u8.tmp' for writing
frame= 1173 fps= 10 q=-0.0 size=N/A time=00:01:57.20 bitrate=N/A speed=   1x    frame= 1178 fps= 10 q=-0.0 size=N/A time=00:01:57.70 bitrate=N/A speed=   1x    frame= 1183 fps= 10 q=-0.0 size=N/A time=00:01:58.20 bitrate=N/A speed=   1x    frame= 1189 fps= 10 q=-0.0 size=N/A time=00:01:58.80 bitrate=N/A speed=   1x    frame= 1194 fps= 10 q=-0.0 size=N/A time=00:01:59.30 bitrate=N/A speed=   1x    frame= 1200 fps= 10 q=-0.0 size=N/A time=00:01:59.90 bitrate=N/A speed=   1x    [hls @ 0x64b7b0cae580] Opening '/home/user/vnc-hls/hls/lane2/segment_20250603-130940.ts' for writing
[hls @ 0x64b7b0cae580] Opening '/home/user/vnc-hls/hls/lane2/stream.m3u8.tmp' for writing
frame= 1205 fps= 10 q=-0.0 size=N/A time=00:02:00.40 bitrate=N/A speed=   1x    frame= 1211 fps= 10 q=-0.0 size=N/A time=00:02:01.00 bitrate=N/A speed=   1x    frame= 1216 fps= 10 q=-0.0 size=N/A time=00:02:01.50 bitrate=N/A speed=   1x    frame= 1222 fps= 10 q=-0.0 size=N/A time=00:02:02.10 bitrate=N/A speed=   1x    frame= 1228 fps= 10 q=-0.0 size=N/A time=00:02:02.70 bitrate=N/A speed=   1x    frame= 1233 fps= 10 q=-0.0 size=N/A time=00:02:03.20 bitrate=N/A speed=   1x    frame= 1239 fps= 10 q=-0.0 size=N/A time=00:02:03.80 bitrate=N/A speed=   1x    frame= 1244 fps= 10 q=-0.0 size=N/A time=00:02:04.30 bitrate=N/A speed=   1x    frame= 1249 fps= 10 q=-0.0 size=N/A time=00:02:04.80 bitrate=N/A speed=   1x    frame= 1255 fps= 10 q=-0.0 size=N/A time=00:02:05.40 bitrate=N/A speed=   1x    [hls @ 0x64b7b0cae580] Opening '/home/user/vnc-hls/hls/lane2/segment_20250603-130943.ts' for writing
[hls @ 0x64b7b0cae580] Opening '/home/user/vnc-hls/hls/lane2/stream.m3u8.tmp' for writing
frame= 1261 fps= 10 q=-0.0 size=N/A time=00:02:06.00 bitrate=N/A speed=   1x    frame= 1267 fps= 10 q=-0.0 size=N/A time=00:02:06.60 bitrate=N/A speed=   1x    frame= 1273 fps= 10 q=-0.0 size=N/A time=00:02:07.20 bitrate=N/A speed=   1x    frame= 1279 fps= 10 q=-0.0 size=N/A time=00:02:07.80 bitrate=N/A speed=   1x    frame= 1284 fps= 10 q=-0.0 size=N/A time=00:02:08.30 bitrate=N/A speed=   1x    frame= 1290 fps= 10 q=-0.0 size=N/A time=00:02:08.90 bitrate=N/A speed=   1x    [hls @ 0x64b7b0cae580] Opening '/home/user/vnc-hls/hls/lane2/segment_20250603-130949.ts' for writing
[hls @ 0x64b7b0cae580] Opening '/home/user/vnc-hls/hls/lane2/stream.m3u8.tmp' for writing
frame= 1296 fps= 10 q=-0.0 size=N/A time=00:02:09.50 bitrate=N/A speed=   1x    frame= 1302 fps= 10 q=-0.0 size=N/A time=00:02:10.10 bitrate=N/A speed=   1x    frame= 1308 fps= 10 q=-0.0 size=N/A time=00:02:10.70 bitrate=N/A speed=   1x    frame= 1314 fps= 10 q=-0.0 size=N/A time=00:02:11.30 bitrate=N/A speed=   1x    frame= 1319 fps= 10 q=-0.0 size=N/A time=00:02:11.80 bitrate=N/A speed=   1x    [hls @ 0x64b7b0cae580] Opening '/home/user/vnc-hls/hls/lane2/segment_20250603-130952.ts' for writing
[hls @ 0x64b7b0cae580] Opening '/home/user/vnc-hls/hls/lane2/stream.m3u8.tmp' for writing
frame= 1325 fps= 10 q=-0.0 size=N/A time=00:02:12.40 bitrate=N/A speed=   1x    frame= 1330 fps= 10 q=-0.0 size=N/A time=00:02:12.90 bitrate=N/A speed=   1x    frame= 1335 fps= 10 q=-0.0 size=N/A time=00:02:13.40 bitrate=N/A speed=   1x    frame= 1341 fps= 10 q=-0.0 size=N/A time=00:02:14.00 bitrate=N/A speed=   1x    frame= 1346 fps= 10 q=-0.0 size=N/A time=00:02:14.50 bitrate=N/A speed=   1x    frame= 1351 fps= 10 q=-0.0 size=N/A time=00:02:15.00 bitrate=N/A speed=   1x    frame= 1357 fps= 10 q=-0.0 size=N/A time=00:02:15.60 bitrate=N/A speed=   1x    frame= 1362 fps= 10 q=-0.0 size=N/A time=00:02:16.10 bitrate=N/A speed=   1x    frame= 1368 fps= 10 q=-0.0 size=N/A time=00:02:16.70 bitrate=N/A speed=   1x    frame= 1373 fps= 10 q=-0.0 size=N/A time=00:02:17.20 bitrate=N/A speed=   1x    frame= 1379 fps= 10 q=-0.0 size=N/A time=00:02:17.80 bitrate=N/A speed=   1x    [hls @ 0x64b7b0cae580] Opening '/home/user/vnc-hls/hls/lane2/segment_20250603-130955.ts' for writing
[hls @ 0x64b7b0cae580] Opening '/home/user/vnc-hls/hls/lane2/stream.m3u8.tmp' for writing
frame= 1385 fps= 10 q=-0.0 size=N/A time=00:02:18.40 bitrate=N/A speed=   1x    frame= 1391 fps= 10 q=-0.0 size=N/A time=00:02:19.00 bitrate=N/A speed=   1x    frame= 1396 fps= 10 q=-0.0 size=N/A time=00:02:19.50 bitrate=N/A speed=   1x    frame= 1401 fps= 10 q=-0.0 size=N/A time=00:02:20.00 bitrate=N/A speed=   1x    frame= 1407 fps= 10 q=-0.0 size=N/A time=00:02:20.60 bitrate=N/A speed=   1x    [hls @ 0x64b7b0cae580] Opening '/home/user/vnc-hls/hls/lane2/segment_20250603-131001.ts' for writing
[hls @ 0x64b7b0cae580] Opening '/home/user/vnc-hls/hls/lane2/stream.m3u8.tmp' for writing
frame= 1413 fps= 10 q=-0.0 size=N/A time=00:02:21.20 bitrate=N/A speed=   1x    frame= 1419 fps= 10 q=-0.0 size=N/A time=00:02:21.80 bitrate=N/A speed=   1x    frame= 1424 fps= 10 q=-0.0 size=N/A time=00:02:22.30 bitrate=N/A speed=   1x    frame= 1429 fps= 10 q=-0.0 size=N/A time=00:02:22.80 bitrate=N/A speed=   1x    frame= 1435 fps= 10 q=-0.0 size=N/A time=00:02:23.40 bitrate=N/A speed=   1x    frame= 1440 fps= 10 q=-0.0 size=N/A time=00:02:23.90 bitrate=N/A speed=   1x    [hls @ 0x64b7b0cae580] Opening '/home/user/vnc-hls/hls/lane2/segment_20250603-131004.ts' for writing
[hls @ 0x64b7b0cae580] Opening '/home/user/vnc-hls/hls/lane2/stream.m3u8.tmp' for writing
frame= 1445 fps= 10 q=-0.0 size=N/A time=00:02:24.40 bitrate=N/A speed=   1x    frame= 1451 fps= 10 q=-0.0 size=N/A time=00:02:25.00 bitrate=N/A speed=   1x    frame= 1456 fps= 10 q=-0.0 size=N/A time=00:02:25.50 bitrate=N/A speed=   1x    frame= 1461 fps= 10 q=-0.0 size=N/A time=00:02:26.00 bitrate=N/A speed=   1x    frame= 1467 fps= 10 q=-0.0 size=N/A time=00:02:26.60 bitrate=N/A speed=   1x    frame= 1472 fps= 10 q=-0.0 size=N/A time=00:02:27.10 bitrate=N/A speed=   1x    frame= 1478 fps= 10 q=-0.0 size=N/A time=00:02:27.70 bitrate=N/A speed=   1x    frame= 1484 fps= 10 q=-0.0 size=N/A time=00:02:28.30 bitrate=N/A speed=   1x    frame= 1490 fps= 10 q=-0.0 size=N/A time=00:02:28.90 bitrate=N/A speed=   1x    frame= 1496 fps= 10 q=-0.0 size=N/A time=00:02:29.50 bitrate=N/A speed=   1x    [hls @ 0x64b7b0cae580] Opening '/home/user/vnc-hls/hls/lane2/segment_20250603-131007.ts' for writing
[hls @ 0x64b7b0cae580] Opening '/home/user/vnc-hls/hls/lane2/stream.m3u8.tmp' for writing
frame= 1502 fps= 10 q=-0.0 size=N/A time=00:02:30.10 bitrate=N/A speed=   1x    frame= 1508 fps= 10 q=-0.0 size=N/A time=00:02:30.70 bitrate=N/A speed=   1x    frame= 1513 fps= 10 q=-0.0 size=N/A time=00:02:31.20 bitrate=N/A speed=   1x    frame= 1518 fps= 10 q=-0.0 size=N/A time=00:02:31.70 bitrate=N/A speed=   1x    frame= 1523 fps= 10 q=-0.0 size=N/A time=00:02:32.20 bitrate=N/A speed=   1x    frame= 1529 fps= 10 q=-0.0 size=N/A time=00:02:32.80 bitrate=N/A speed=   1x    [hls @ 0x64b7b0cae580] Opening '/home/user/vnc-hls/hls/lane2/segment_20250603-131013.ts' for writing
[hls @ 0x64b7b0cae580] Opening '/home/user/vnc-hls/hls/lane2/stream.m3u8.tmp' for writing
frame= 1535 fps= 10 q=-0.0 size=N/A time=00:02:33.40 bitrate=N/A speed=   1x    frame= 1541 fps= 10 q=-0.0 size=N/A time=00:02:34.00 bitrate=N/A speed=   1x    frame= 1546 fps= 10 q=-0.0 size=N/A time=00:02:34.50 bitrate=N/A speed=   1x    frame= 1552 fps= 10 q=-0.0 size=N/A time=00:02:35.10 bitrate=N/A speed=   1x    frame= 1558 fps= 10 q=-0.0 size=N/A time=00:02:35.70 bitrate=N/A speed=   1x    [hls @ 0x64b7b0cae580] Opening '/home/user/vnc-hls/hls/lane2/segment_20250603-131016.ts' for writing
[hls @ 0x64b7b0cae580] Opening '/home/user/vnc-hls/hls/lane2/stream.m3u8.tmp' for writing
frame= 1564 fps= 10 q=-0.0 size=N/A time=00:02:36.30 bitrate=N/A speed=   1x    frame= 1569 fps= 10 q=-0.0 size=N/A time=00:02:36.80 bitrate=N/A speed=   1x    frame= 1575 fps= 10 q=-0.0 size=N/A time=00:02:37.40 bitrate=N/A speed=   1x    frame= 1580 fps= 10 q=-0.0 size=N/A time=00:02:37.90 bitrate=N/A speed=   1x    frame= 1586 fps= 10 q=-0.0 size=N/A time=00:02:38.50 bitrate=N/A speed=   1x    frame= 1591 fps= 10 q=-0.0 size=N/A time=00:02:39.00 bitrate=N/A speed=   1x    frame= 1597 fps= 10 q=-0.0 size=N/A time=00:02:39.60 bitrate=N/A speed=   1x    frame= 1602 fps= 10 q=-0.0 size=N/A time=00:02:40.10 bitrate=N/A speed=   1x    frame= 1608 fps= 10 q=-0.0 size=N/A time=00:02:40.70 bitrate=N/A speed=   1x    frame= 1614 fps= 10 q=-0.0 size=N/A time=00:02:41.30 bitrate=N/A speed=   1x    frame= 1620 fps= 10 q=-0.0 size=N/A time=00:02:41.90 bitrate=N/A speed=   1x    [hls @ 0x64b7b0cae580] Opening '/home/user/vnc-hls/hls/lane2/segment_20250603-131019.ts' for writing
[hls @ 0x64b7b0cae580] Opening '/home/user/vnc-hls/hls/lane2/stream.m3u8.tmp' for writing
frame= 1626 fps= 10 q=-0.0 size=N/A time=00:02:42.50 bitrate=N/A speed=   1x    frame= 1631 fps= 10 q=-0.0 size=N/A time=00:02:43.00 bitrate=N/A speed=   1x    frame= 1637 fps= 10 q=-0.0 size=N/A time=00:02:43.60 bitrate=N/A speed=   1x    frame= 1642 fps= 10 q=-0.0 size=N/A time=00:02:44.10 bitrate=N/A speed=   1x    frame= 1647 fps= 10 q=-0.0 size=N/A time=00:02:44.60 bitrate=N/A speed=   1x    [hls @ 0x64b7b0cae580] Opening '/home/user/vnc-hls/hls/lane2/segment_20250603-131025.ts' for writing
[hls @ 0x64b7b0cae580] Opening '/home/user/vnc-hls/hls/lane2/stream.m3u8.tmp' for writing
frame= 1653 fps= 10 q=-0.0 size=N/A time=00:02:45.20 bitrate=N/A speed=   1x    frame= 1659 fps= 10 q=-0.0 size=N/A time=00:02:45.80 bitrate=N/A speed=   1x    frame= 1665 fps= 10 q=-0.0 size=N/A time=00:02:46.40 bitrate=N/A speed=   1x    frame= 1670 fps= 10 q=-0.0 size=N/A time=00:02:46.90 bitrate=N/A speed=   1x    frame= 1676 fps= 10 q=-0.0 size=N/A time=00:02:47.50 bitrate=N/A speed=   1x    [hls @ 0x64b7b0cae580] Opening '/home/user/vnc-hls/hls/lane2/segment_20250603-131028.ts' for writing
[hls @ 0x64b7b0cae580] Opening '/home/user/vnc-hls/hls/lane2/stream.m3u8.tmp' for writing
frame= 1682 fps= 10 q=-0.0 size=N/A time=00:02:48.10 bitrate=N/A speed=   1x    frame= 1688 fps= 10 q=-0.0 size=N/A time=00:02:48.70 bitrate=N/A speed=   1x    frame= 1693 fps= 10 q=-0.0 size=N/A time=00:02:49.20 bitrate=N/A speed=   1x    frame= 1699 fps= 10 q=-0.0 size=N/A time=00:02:49.80 bitrate=N/A speed=   1x    frame= 1705 fps= 10 q=-0.0 size=N/A time=00:02:50.40 bitrate=N/A speed=   1x    frame= 1710 fps= 10 q=-0.0 size=N/A time=00:02:50.90 bitrate=N/A speed=   1x    frame= 1716 fps= 10 q=-0.0 size=N/A time=00:02:51.50 bitrate=N/A speed=   1x    frame= 1722 fps= 10 q=-0.0 size=N/A time=00:02:52.10 bitrate=N/A speed=   1x    frame= 1727 fps= 10 q=-0.0 size=N/A time=00:02:52.60 bitrate=N/A speed=   1x    frame= 1733 fps= 10 q=-0.0 size=N/A time=00:02:53.20 bitrate=N/A speed=   1x    frame= 1738 fps= 10 q=-0.0 size=N/A time=00:02:53.70 bitrate=N/A speed=   1x    [hls @ 0x64b7b0cae580] Opening '/home/user/vnc-hls/hls/lane2/segment_20250603-131031.ts' for writing
[hls @ 0x64b7b0cae580] Opening '/home/user/vnc-hls/hls/lane2/stream.m3u8.tmp' for writing
frame= 1743 fps= 10 q=-0.0 size=N/A time=00:02:54.20 bitrate=N/A speed=   1x    frame= 1749 fps= 10 q=-0.0 size=N/A time=00:02:54.80 bitrate=N/A speed=   1x    frame= 1754 fps= 10 q=-0.0 size=N/A time=00:02:55.30 bitrate=N/A speed=   1x    frame= 1760 fps= 10 q=-0.0 size=N/A time=00:02:55.90 bitrate=N/A speed=   1x    frame= 1765 fps= 10 q=-0.0 size=N/A time=00:02:56.40 bitrate=N/A speed=   1x    frame= 1770 fps= 10 q=-0.0 size=N/A time=00:02:56.90 bitrate=N/A speed=   1x    [hls @ 0x64b7b0cae580] Opening '/home/user/vnc-hls/hls/lane2/segment_20250603-131037.ts' for writing
[hls @ 0x64b7b0cae580] Opening '/home/user/vnc-hls/hls/lane2/stream.m3u8.tmp' for writing
frame= 1776 fps= 10 q=-0.0 size=N/A time=00:02:57.50 bitrate=N/A speed=   1x    frame= 1781 fps= 10 q=-0.0 size=N/A time=00:02:58.00 bitrate=N/A speed=   1x    frame= 1787 fps= 10 q=-0.0 size=N/A time=00:02:58.60 bitrate=N/A speed=   1x    frame= 1792 fps= 10 q=-0.0 size=N/A time=00:02:59.10 bitrate=N/A speed=   1x    frame= 1798 fps= 10 q=-0.0 size=N/A time=00:02:59.70 bitrate=N/A speed=   1x    [hls @ 0x64b7b0cae580] Opening '/home/user/vnc-hls/hls/lane2/segment_20250603-131040.ts' for writing
[hls @ 0x64b7b0cae580] Opening '/home/user/vnc-hls/hls/lane2/stream.m3u8.tmp' for writing
frame= 1803 fps= 10 q=-0.0 size=N/A time=00:03:00.20 bitrate=N/A speed=   1x    frame= 1809 fps= 10 q=-0.0 size=N/A time=00:03:00.80 bitrate=N/A speed=   1x    frame= 1814 fps= 10 q=-0.0 size=N/A time=00:03:01.30 bitrate=N/A speed=   1x    frame= 1820 fps= 10 q=-0.0 size=N/A time=00:03:01.90 bitrate=N/A speed=   1x    frame= 1825 fps= 10 q=-0.0 size=N/A time=00:03:02.40 bitrate=N/A speed=   1x    frame= 1830 fps= 10 q=-0.0 size=N/A time=00:03:02.90 bitrate=N/A speed=   1x    frame= 1836 fps= 10 q=-0.0 size=N/A time=00:03:03.50 bitrate=N/A speed=   1x    frame= 1841 fps= 10 q=-0.0 size=N/A time=00:03:04.00 bitrate=N/A speed=   1x    frame= 1847 fps= 10 q=-0.0 size=N/A time=00:03:04.60 bitrate=N/A speed=   1x    frame= 1853 fps= 10 q=-0.0 size=N/A time=00:03:05.20 bitrate=N/A speed=   1x    frame= 1858 fps= 10 q=-0.0 size=N/A time=00:03:05.70 bitrate=N/A speed=   1x    [hls @ 0x64b7b0cae580] Opening '/home/user/vnc-hls/hls/lane2/segment_20250603-131043.ts' for writing
[hls @ 0x64b7b0cae580] Opening '/home/user/vnc-hls/hls/lane2/stream.m3u8.tmp' for writing
frame= 1864 fps= 10 q=-0.0 size=N/A time=00:03:06.30 bitrate=N/A speed=   1x    frame= 1870 fps= 10 q=-0.0 size=N/A time=00:03:06.90 bitrate=N/A speed=   1x    frame= 1876 fps= 10 q=-0.0 size=N/A time=00:03:07.50 bitrate=N/A speed=   1x    frame= 1881 fps= 10 q=-0.0 size=N/A time=00:03:08.00 bitrate=N/A speed=   1x    frame= 1887 fps= 10 q=-0.0 size=N/A time=00:03:08.60 bitrate=N/A speed=   1x    [hls @ 0x64b7b0cae580] Opening '/home/user/vnc-hls/hls/lane2/segment_20250603-131049.ts' for writing
[hls @ 0x64b7b0cae580] Opening '/home/user/vnc-hls/hls/lane2/stream.m3u8.tmp' for writing
frame= 1892 fps= 10 q=-0.0 size=N/A time=00:03:09.10 bitrate=N/A speed=   1x    frame= 1898 fps= 10 q=-0.0 size=N/A time=00:03:09.70 bitrate=N/A speed=   1x    frame= 1904 fps= 10 q=-0.0 size=N/A time=00:03:10.30 bitrate=N/A speed=   1x    frame= 1909 fps= 10 q=-0.0 size=N/A time=00:03:10.80 bitrate=N/A speed=   1x    frame= 1915 fps= 10 q=-0.0 size=N/A time=00:03:11.40 bitrate=N/A speed=   1x    frame= 1920 fps= 10 q=-0.0 size=N/A time=00:03:11.90 bitrate=N/A speed=   1x    [hls @ 0x64b7b0cae580] Opening '/home/user/vnc-hls/hls/lane2/segment_20250603-131052.ts' for writing
[hls @ 0x64b7b0cae580] Opening '/home/user/vnc-hls/hls/lane2/stream.m3u8.tmp' for writing
frame= 1926 fps= 10 q=-0.0 size=N/A time=00:03:12.50 bitrate=N/A speed=   1x    frame= 1931 fps= 10 q=-0.0 size=N/A time=00:03:13.00 bitrate=N/A speed=   1x    frame= 1937 fps= 10 q=-0.0 size=N/A time=00:03:13.60 bitrate=N/A speed=   1x    frame= 1943 fps= 10 q=-0.0 size=N/A time=00:03:14.20 bitrate=N/A speed=   1x    frame= 1948 fps= 10 q=-0.0 size=N/A time=00:03:14.70 bitrate=N/A speed=   1x    frame= 1954 fps= 10 q=-0.0 size=N/A time=00:03:15.30 bitrate=N/A speed=   1x    frame= 1959 fps= 10 q=-0.0 size=N/A time=00:03:15.80 bitrate=N/A speed=   1x    frame= 1965 fps= 10 q=-0.0 size=N/A time=00:03:16.40 bitrate=N/A speed=   1x    frame= 1971 fps= 10 q=-0.0 size=N/A time=00:03:17.00 bitrate=N/A speed=   1x    frame= 1976 fps= 10 q=-0.0 size=N/A time=00:03:17.50 bitrate=N/A speed=   1x    [hls @ 0x64b7b0cae580] Opening '/home/user/vnc-hls/hls/lane2/segment_20250603-131055.ts' for writing
[hls @ 0x64b7b0cae580] Opening '/home/user/vnc-hls/hls/lane2/stream.m3u8.tmp' for writing
frame= 1981 fps= 10 q=-0.0 size=N/A time=00:03:18.00 bitrate=N/A speed=   1x    frame= 1987 fps= 10 q=-0.0 size=N/A time=00:03:18.60 bitrate=N/A speed=   1x    frame= 1992 fps= 10 q=-0.0 size=N/A time=00:03:19.10 bitrate=N/A speed=   1x    frame= 1998 fps= 10 q=-0.0 size=N/A time=00:03:19.70 bitrate=N/A speed=   1x    frame= 2004 fps= 10 q=-0.0 size=N/A time=00:03:20.30 bitrate=N/A speed=   1x    frame= 2010 fps= 10 q=-0.0 size=N/A time=00:03:20.90 bitrate=N/A speed=   1x    [hls @ 0x64b7b0cae580] Opening '/home/user/vnc-hls/hls/lane2/segment_20250603-131101.ts' for writing
[hls @ 0x64b7b0cae580] Opening '/home/user/vnc-hls/hls/lane2/stream.m3u8.tmp' for writing
frame= 2015 fps= 10 q=-0.0 size=N/A time=00:03:21.40 bitrate=N/A speed=   1x    frame= 2020 fps= 10 q=-0.0 size=N/A time=00:03:21.90 bitrate=N/A speed=   1x    frame= 2025 fps= 10 q=-0.0 size=N/A time=00:03:22.40 bitrate=N/A speed=   1x    frame= 2031 fps= 10 q=-0.0 size=N/A time=00:03:23.00 bitrate=N/A speed=   1x    frame= 2036 fps= 10 q=-0.0 size=N/A time=00:03:23.50 bitrate=N/A speed=   1x    [hls @ 0x64b7b0cae580] Opening '/home/user/vnc-hls/hls/lane2/segment_20250603-131104.ts' for writing
[hls @ 0x64b7b0cae580] Opening '/home/user/vnc-hls/hls/lane2/stream.m3u8.tmp' for writing
frame= 2041 fps= 10 q=-0.0 size=N/A time=00:03:24.00 bitrate=N/A speed=   1x    frame= 2047 fps= 10 q=-0.0 size=N/A time=00:03:24.60 bitrate=N/A speed=   1x    frame= 2052 fps= 10 q=-0.0 size=N/A time=00:03:25.10 bitrate=N/A speed=   1x    frame= 2058 fps= 10 q=-0.0 size=N/A time=00:03:25.70 bitrate=N/A speed=   1x    frame= 2064 fps= 10 q=-0.0 size=N/A time=00:03:26.30 bitrate=N/A speed=   1x    frame= 2069 fps= 10 q=-0.0 size=N/A time=00:03:26.80 bitrate=N/A speed=   1x    frame= 2075 fps= 10 q=-0.0 size=N/A time=00:03:27.40 bitrate=N/A speed=   1x    frame= 2080 fps= 10 q=-0.0 size=N/A time=00:03:27.90 bitrate=N/A speed=   1x    frame= 2086 fps= 10 q=-0.0 size=N/A time=00:03:28.50 bitrate=N/A speed=   1x    frame= 2091 fps= 10 q=-0.0 size=N/A time=00:03:29.00 bitrate=N/A speed=   1x    frame= 2096 fps= 10 q=-0.0 size=N/A time=00:03:29.50 bitrate=N/A speed=   1x    [hls @ 0x64b7b0cae580] Opening '/home/user/vnc-hls/hls/lane2/segment_20250603-131107.ts' for writing
[hls @ 0x64b7b0cae580] Opening '/home/user/vnc-hls/hls/lane2/stream.m3u8.tmp' for writing
frame= 2101 fps= 10 q=-0.0 size=N/A time=00:03:30.00 bitrate=N/A speed=   1x    frame= 2107 fps= 10 q=-0.0 size=N/A time=00:03:30.60 bitrate=N/A speed=   1x    frame= 2112 fps= 10 q=-0.0 size=N/A time=00:03:31.10 bitrate=N/A speed=   1x    frame= 2118 fps= 10 q=-0.0 size=N/A time=00:03:31.70 bitrate=N/A speed=   1x    frame= 2123 fps= 10 q=-0.0 size=N/A time=00:03:32.20 bitrate=N/A speed=   1x    frame= 2129 fps= 10 q=-0.0 size=N/A time=00:03:32.80 bitrate=N/A speed=   1x    [hls @ 0x64b7b0cae580] Opening '/home/user/vnc-hls/hls/lane2/segment_20250603-131113.ts' for writing
[hls @ 0x64b7b0cae580] Opening '/home/user/vnc-hls/hls/lane2/stream.m3u8.tmp' for writing
frame= 2134 fps= 10 q=-0.0 size=N/A time=00:03:33.30 bitrate=N/A speed=   1x    frame= 2140 fps= 10 q=-0.0 size=N/A time=00:03:33.90 bitrate=N/A speed=   1x    frame= 2146 fps= 10 q=-0.0 size=N/A time=00:03:34.50 bitrate=N/A speed=   1x    frame= 2151 fps= 10 q=-0.0 size=N/A time=00:03:35.00 bitrate=N/A speed=   1x    frame= 2157 fps= 10 q=-0.0 size=N/A time=00:03:35.60 bitrate=N/A speed=   1x    [hls @ 0x64b7b0cae580] Opening '/home/user/vnc-hls/hls/lane2/segment_20250603-131116.ts' for writing
[hls @ 0x64b7b0cae580] Opening '/home/user/vnc-hls/hls/lane2/stream.m3u8.tmp' for writing
frame= 2163 fps= 10 q=-0.0 size=N/A time=00:03:36.20 bitrate=N/A speed=   1x    frame= 2168 fps= 10 q=-0.0 size=N/A time=00:03:36.70 bitrate=N/A speed=   1x    frame= 2174 fps= 10 q=-0.0 size=N/A time=00:03:37.30 bitrate=N/A speed=   1x    frame= 2179 fps= 10 q=-0.0 size=N/A time=00:03:37.80 bitrate=N/A speed=   1x    frame= 2185 fps= 10 q=-0.0 size=N/A time=00:03:38.40 bitrate=N/A speed=   1x    frame= 2191 fps= 10 q=-0.0 size=N/A time=00:03:39.00 bitrate=N/A speed=   1x    frame= 2196 fps= 10 q=-0.0 size=N/A time=00:03:39.50 bitrate=N/A speed=   1x    frame= 2201 fps= 10 q=-0.0 size=N/A time=00:03:40.00 bitrate=N/A speed=   1x    frame= 2206 fps= 10 q=-0.0 size=N/A time=00:03:40.50 bitrate=N/A speed=   1x    frame= 2211 fps= 10 q=-0.0 size=N/A time=00:03:41.00 bitrate=N/A speed=   1x    frame= 2216 fps= 10 q=-0.0 size=N/A time=00:03:41.50 bitrate=N/A speed=   1x    [hls @ 0x64b7b0cae580] Opening '/home/user/vnc-hls/hls/lane2/segment_20250603-131119.ts' for writing
[hls @ 0x64b7b0cae580] Opening '/home/user/vnc-hls/hls/lane2/stream.m3u8.tmp' for writing
frame= 2222 fps= 10 q=-0.0 size=N/A time=00:03:42.10 bitrate=N/A speed=   1x    frame= 2227 fps= 10 q=-0.0 size=N/A time=00:03:42.60 bitrate=N/A speed=   1x    frame= 2232 fps= 10 q=-0.0 size=N/A time=00:03:43.10 bitrate=N/A speed=   1x    frame= 2238 fps= 10 q=-0.0 size=N/A time=00:03:43.70 bitrate=N/A speed=   1x    frame= 2244 fps= 10 q=-0.0 size=N/A time=00:03:44.30 bitrate=N/A speed=   1x    frame= 2250 fps= 10 q=-0.0 size=N/A time=00:03:44.90 bitrate=N/A speed=   1x    [hls @ 0x64b7b0cae580] Opening '/home/user/vnc-hls/hls/lane2/segment_20250603-131125.ts' for writing
[hls @ 0x64b7b0cae580] Opening '/home/user/vnc-hls/hls/lane2/stream.m3u8.tmp' for writing
frame= 2255 fps= 10 q=-0.0 size=N/A time=00:03:45.40 bitrate=N/A speed=   1x    frame= 2261 fps= 10 q=-0.0 size=N/A time=00:03:46.00 bitrate=N/A speed=   1x    frame= 2267 fps= 10 q=-0.0 size=N/A time=00:03:46.60 bitrate=N/A speed=   1x    frame= 2273 fps= 10 q=-0.0 size=N/A time=00:03:47.20 bitrate=N/A speed=   1x    frame= 2278 fps= 10 q=-0.0 size=N/A time=00:03:47.70 bitrate=N/A speed=   1x    [hls @ 0x64b7b0cae580] Opening '/home/user/vnc-hls/hls/lane2/segment_20250603-131128.ts' for writing
[hls @ 0x64b7b0cae580] Opening '/home/user/vnc-hls/hls/lane2/stream.m3u8.tmp' for writing
frame= 2283 fps= 10 q=-0.0 size=N/A time=00:03:48.20 bitrate=N/A speed=   1x    frame= 2289 fps= 10 q=-0.0 size=N/A time=00:03:48.80 bitrate=N/A speed=   1x    frame= 2295 fps= 10 q=-0.0 size=N/A time=00:03:49.40 bitrate=N/A speed=   1x    frame= 2300 fps= 10 q=-0.0 size=N/A time=00:03:49.90 bitrate=N/A speed=   1x    frame= 2305 fps= 10 q=-0.0 size=N/A time=00:03:50.40 bitrate=N/A speed=   1x    frame= 2311 fps= 10 q=-0.0 size=N/A time=00:03:51.00 bitrate=N/A speed=   1x    frame= 2316 fps= 10 q=-0.0 size=N/A time=00:03:51.50 bitrate=N/A speed=   1x    frame= 2323 fps= 10 q=-0.0 size=N/A time=00:03:52.10 bitrate=N/A speed=   1x    frame= 2328 fps= 10 q=-0.0 size=N/A time=00:03:52.70 bitrate=N/A speed=   1x    frame= 2333 fps= 10 q=-0.0 size=N/A time=00:03:53.20 bitrate=N/A speed=   1x    frame= 2339 fps= 10 q=-0.0 size=N/A time=00:03:53.80 bitrate=N/A speed=   1x    [hls @ 0x64b7b0cae580] Opening '/home/user/vnc-hls/hls/lane2/segment_20250603-131131.ts' for writing
[hls @ 0x64b7b0cae580] Opening '/home/user/vnc-hls/hls/lane2/stream.m3u8.tmp' for writing
frame= 2344 fps= 10 q=-0.0 size=N/A time=00:03:54.30 bitrate=N/A speed=   1x    frame= 2349 fps= 10 q=-0.0 size=N/A time=00:03:54.80 bitrate=N/A speed=   1x    frame= 2355 fps= 10 q=-0.0 size=N/A time=00:03:55.40 bitrate=N/A speed=   1x    frame= 2361 fps= 10 q=-0.0 size=N/A time=00:03:56.00 bitrate=N/A speed=   1x    frame= 2367 fps= 10 q=-0.0 size=N/A time=00:03:56.60 bitrate=N/A speed=   1x    [hls @ 0x64b7b0cae580] Opening '/home/user/vnc-hls/hls/lane2/segment_20250603-131137.ts' for writing
[hls @ 0x64b7b0cae580] Opening '/home/user/vnc-hls/hls/lane2/stream.m3u8.tmp' for writing
frame= 2373 fps= 10 q=-0.0 size=N/A time=00:03:57.20 bitrate=N/A speed=   1x    frame= 2379 fps= 10 q=-0.0 size=N/A time=00:03:57.80 bitrate=N/A speed=   1x    frame= 2385 fps= 10 q=-0.0 size=N/A time=00:03:58.40 bitrate=N/A speed=   1x    frame= 2391 fps= 10 q=-0.0 size=N/A time=00:03:59.00 bitrate=N/A speed=   1x    frame= 2397 fps= 10 q=-0.0 size=N/A time=00:03:59.60 bitrate=N/A speed=   1x    [hls @ 0x64b7b0cae580] Opening '/home/user/vnc-hls/hls/lane2/segment_20250603-131140.ts' for writing
[hls @ 0x64b7b0cae580] Opening '/home/user/vnc-hls/hls/lane2/stream.m3u8.tmp' for writing
frame= 2402 fps= 10 q=-0.0 size=N/A time=00:04:00.10 bitrate=N/A speed=   1x    frame= 2407 fps= 10 q=-0.0 size=N/A time=00:04:00.60 bitrate=N/A speed=   1x    frame= 2413 fps= 10 q=-0.0 size=N/A time=00:04:01.20 bitrate=N/A speed=   1x    frame= 2419 fps= 10 q=-0.0 size=N/A time=00:04:01.80 bitrate=N/A speed=   1x    frame= 2425 fps= 10 q=-0.0 size=N/A time=00:04:02.40 bitrate=N/A speed=   1x    frame= 2430 fps= 10 q=-0.0 size=N/A time=00:04:02.90 bitrate=N/A speed=   1x    frame= 2436 fps= 10 q=-0.0 size=N/A time=00:04:03.50 bitrate=N/A speed=   1x    frame= 2442 fps= 10 q=-0.0 size=N/A time=00:04:04.10 bitrate=N/A speed=   1x    frame= 2447 fps= 10 q=-0.0 size=N/A time=00:04:04.60 bitrate=N/A speed=   1x    frame= 2453 fps= 10 q=-0.0 size=N/A time=00:04:05.20 bitrate=N/A speed=   1x    frame= 2458 fps= 10 q=-0.0 size=N/A time=00:04:05.70 bitrate=N/A speed=   1x    [hls @ 0x64b7b0cae580] Opening '/home/user/vnc-hls/hls/lane2/segment_20250603-131143.ts' for writing
[hls @ 0x64b7b0cae580] Opening '/home/user/vnc-hls/hls/lane2/stream.m3u8.tmp' for writing
frame= 2464 fps= 10 q=-0.0 size=N/A time=00:04:06.30 bitrate=N/A speed=   1x    frame= 2469 fps= 10 q=-0.0 size=N/A time=00:04:06.80 bitrate=N/A speed=   1x    frame= 2474 fps= 10 q=-0.0 size=N/A time=00:04:07.30 bitrate=N/A speed=   1x    frame= 2480 fps= 10 q=-0.0 size=N/A time=00:04:07.90 bitrate=N/A speed=   1x    frame= 2486 fps= 10 q=-0.0 size=N/A time=00:04:08.50 bitrate=N/A speed=   1x    [hls @ 0x64b7b0cae580] Opening '/home/user/vnc-hls/hls/lane2/segment_20250603-131149.ts' for writing
[hls @ 0x64b7b0cae580] Opening '/home/user/vnc-hls/hls/lane2/stream.m3u8.tmp' for writing
frame= 2492 fps= 10 q=-0.0 size=N/A time=00:04:09.10 bitrate=N/A speed=   1x    frame= 2498 fps= 10 q=-0.0 size=N/A time=00:04:09.70 bitrate=N/A speed=   1x    frame= 2503 fps= 10 q=-0.0 size=N/A time=00:04:10.20 bitrate=N/A speed=   1x    frame= 2509 fps= 10 q=-0.0 size=N/A time=00:04:10.80 bitrate=N/A speed=   1x    frame= 2515 fps= 10 q=-0.0 size=N/A time=00:04:11.40 bitrate=N/A speed=   1x    frame= 2520 fps= 10 q=-0.0 size=N/A time=00:04:11.90 bitrate=N/A speed=   1x    [hls @ 0x64b7b0cae580] Opening '/home/user/vnc-hls/hls/lane2/segment_20250603-131152.ts' for writing
[hls @ 0x64b7b0cae580] Opening '/home/user/vnc-hls/hls/lane2/stream.m3u8.tmp' for writing
frame= 2526 fps= 10 q=-0.0 size=N/A time=00:04:12.50 bitrate=N/A speed=   1x    frame= 2532 fps= 10 q=-0.0 size=N/A time=00:04:13.10 bitrate=N/A speed=   1x    frame= 2538 fps= 10 q=-0.0 size=N/A time=00:04:13.70 bitrate=N/A speed=   1x    frame= 2543 fps= 10 q=-0.0 size=N/A time=00:04:14.20 bitrate=N/A speed=   1x    frame= 2548 fps= 10 q=-0.0 size=N/A time=00:04:14.70 bitrate=N/A speed=   1x    frame= 2554 fps= 10 q=-0.0 size=N/A time=00:04:15.30 bitrate=N/A speed=   1x    frame= 2560 fps= 10 q=-0.0 size=N/A time=00:04:15.90 bitrate=N/A speed=   1x    frame= 2566 fps= 10 q=-0.0 size=N/A time=00:04:16.50 bitrate=N/A speed=   1x    frame= 2572 fps= 10 q=-0.0 size=N/A time=00:04:17.10 bitrate=N/A speed=   1x    frame= 2578 fps= 10 q=-0.0 size=N/A time=00:04:17.70 bitrate=N/A speed=   1x    [hls @ 0x64b7b0cae580] Opening '/home/user/vnc-hls/hls/lane2/segment_20250603-131155.ts' for writing
[hls @ 0x64b7b0cae580] Opening '/home/user/vnc-hls/hls/lane2/stream.m3u8.tmp' for writing
frame= 2584 fps= 10 q=-0.0 size=N/A time=00:04:18.30 bitrate=N/A speed=   1x    frame= 2589 fps= 10 q=-0.0 size=N/A time=00:04:18.80 bitrate=N/A speed=   1x    frame= 2594 fps= 10 q=-0.0 size=N/A time=00:04:19.30 bitrate=N/A speed=   1x    frame= 2599 fps= 10 q=-0.0 size=N/A time=00:04:19.80 bitrate=N/A speed=   1x    frame= 2605 fps= 10 q=-0.0 size=N/A time=00:04:20.40 bitrate=N/A speed=   1x    [hls @ 0x64b7b0cae580] Opening '/home/user/vnc-hls/hls/lane2/segment_20250603-131201.ts' for writing
[hls @ 0x64b7b0cae580] Opening '/home/user/vnc-hls/hls/lane2/stream.m3u8.tmp' for writing
frame= 2611 fps= 10 q=-0.0 size=N/A time=00:04:21.00 bitrate=N/A speed=   1x    frame= 2616 fps= 10 q=-0.0 size=N/A time=00:04:21.50 bitrate=N/A speed=   1x    frame= 2622 fps= 10 q=-0.0 size=N/A time=00:04:22.10 bitrate=N/A speed=   1x    frame= 2627 fps= 10 q=-0.0 size=N/A time=00:04:22.60 bitrate=N/A speed=   1x    frame= 2633 fps= 10 q=-0.0 size=N/A time=00:04:23.20 bitrate=N/A speed=   1x    frame= 2638 fps= 10 q=-0.0 size=N/A time=00:04:23.70 bitrate=N/A speed=   1x    [hls @ 0x64b7b0cae580] Opening '/home/user/vnc-hls/hls/lane2/segment_20250603-131204.ts' for writing
[hls @ 0x64b7b0cae580] Opening '/home/user/vnc-hls/hls/lane2/stream.m3u8.tmp' for writing
frame= 2643 fps= 10 q=-0.0 size=N/A time=00:04:24.20 bitrate=N/A speed=   1x    frame= 2649 fps= 10 q=-0.0 size=N/A time=00:04:24.80 bitrate=N/A speed=   1x    frame= 2654 fps= 10 q=-0.0 size=N/A time=00:04:25.30 bitrate=N/A speed=   1x    frame= 2660 fps= 10 q=-0.0 size=N/A time=00:04:25.90 bitrate=N/A speed=   1x    frame= 2665 fps= 10 q=-0.0 size=N/A time=00:04:26.40 bitrate=N/A speed=   1x    frame= 2671 fps= 10 q=-0.0 size=N/A time=00:04:27.00 bitrate=N/A speed=   1x    frame= 2677 fps= 10 q=-0.0 size=N/A time=00:04:27.60 bitrate=N/A speed=   1x    frame= 2682 fps= 10 q=-0.0 size=N/A time=00:04:28.10 bitrate=N/A speed=   1x    frame= 2688 fps= 10 q=-0.0 size=N/A time=00:04:28.70 bitrate=N/A speed=   1x    frame= 2693 fps= 10 q=-0.0 size=N/A time=00:04:29.20 bitrate=N/A speed=   1x    frame= 2699 fps= 10 q=-0.0 size=N/A time=00:04:29.80 bitrate=N/A speed=   1x    [hls @ 0x64b7b0cae580] Opening '/home/user/vnc-hls/hls/lane2/segment_20250603-131207.ts' for writing
[hls @ 0x64b7b0cae580] Opening '/home/user/vnc-hls/hls/lane2/stream.m3u8.tmp' for writing
frame= 2705 fps= 10 q=-0.0 size=N/A time=00:04:30.40 bitrate=N/A speed=   1x    frame= 2711 fps= 10 q=-0.0 size=N/A time=00:04:31.00 bitrate=N/A speed=   1x    frame= 2717 fps= 10 q=-0.0 size=N/A time=00:04:31.60 bitrate=N/A speed=   1x    frame= 2722 fps= 10 q=-0.0 size=N/A time=00:04:32.10 bitrate=N/A speed=   1x    frame= 2728 fps= 10 q=-0.0 size=N/A time=00:04:32.70 bitrate=N/A speed=   1x    [hls @ 0x64b7b0cae580] Opening '/home/user/vnc-hls/hls/lane2/segment_20250603-131213.ts' for writing
[hls @ 0x64b7b0cae580] Opening '/home/user/vnc-hls/hls/lane2/stream.m3u8.tmp' for writing
frame= 2734 fps= 10 q=-0.0 size=N/A time=00:04:33.30 bitrate=N/A speed=   1x    frame= 2740 fps= 10 q=-0.0 size=N/A time=00:04:33.90 bitrate=N/A speed=   1x    frame= 2745 fps= 10 q=-0.0 size=N/A time=00:04:34.40 bitrate=N/A speed=   1x    frame= 2751 fps= 10 q=-0.0 size=N/A time=00:04:35.00 bitrate=N/A speed=   1x    frame= 2757 fps= 10 q=-0.0 size=N/A time=00:04:35.60 bitrate=N/A speed=   1x    [hls @ 0x64b7b0cae580] Opening '/home/user/vnc-hls/hls/lane2/segment_20250603-131216.ts' for writing
[hls @ 0x64b7b0cae580] Opening '/home/user/vnc-hls/hls/lane2/stream.m3u8.tmp' for writing
frame= 2763 fps= 10 q=-0.0 size=N/A time=00:04:36.20 bitrate=N/A speed=   1x    frame= 2768 fps= 10 q=-0.0 size=N/A time=00:04:36.70 bitrate=N/A speed=   1x    frame= 2773 fps= 10 q=-0.0 size=N/A time=00:04:37.20 bitrate=N/A speed=   1x    frame= 2779 fps= 10 q=-0.0 size=N/A time=00:04:37.80 bitrate=N/A speed=   1x    frame= 2784 fps= 10 q=-0.0 size=N/A time=00:04:38.30 bitrate=N/A speed=   1x    frame= 2790 fps= 10 q=-0.0 size=N/A time=00:04:38.90 bitrate=N/A speed=   1x    frame= 2796 fps= 10 q=-0.0 size=N/A time=00:04:39.50 bitrate=N/A speed=   1x    frame= 2801 fps= 10 q=-0.0 size=N/A time=00:04:40.00 bitrate=N/A speed=   1x    frame= 2807 fps= 10 q=-0.0 size=N/A time=00:04:40.60 bitrate=N/A speed=   1x    frame= 2812 fps= 10 q=-0.0 size=N/A time=00:04:41.10 bitrate=N/A speed=   1x    frame= 2819 fps= 10 q=-0.0 size=N/A time=00:04:41.70 bitrate=N/A speed=   1x    [hls @ 0x64b7b0cae580] Opening '/home/user/vnc-hls/hls/lane2/segment_20250603-131219.ts' for writing
[hls @ 0x64b7b0cae580] Opening '/home/user/vnc-hls/hls/lane2/stream.m3u8.tmp' for writing
frame= 2824 fps= 10 q=-0.0 size=N/A time=00:04:42.30 bitrate=N/A speed=   1x    frame= 2830 fps= 10 q=-0.0 size=N/A time=00:04:42.90 bitrate=N/A speed=   1x    frame= 2836 fps= 10 q=-0.0 size=N/A time=00:04:43.50 bitrate=N/A speed=   1x    frame= 2841 fps= 10 q=-0.0 size=N/A time=00:04:44.00 bitrate=N/A speed=   1x    frame= 2847 fps= 10 q=-0.0 size=N/A time=00:04:44.60 bitrate=N/A speed=   1x    [hls @ 0x64b7b0cae580] Opening '/home/user/vnc-hls/hls/lane2/segment_20250603-131225.ts' for writing
[hls @ 0x64b7b0cae580] Opening '/home/user/vnc-hls/hls/lane2/stream.m3u8.tmp' for writing
frame= 2852 fps= 10 q=-0.0 size=N/A time=00:04:45.10 bitrate=N/A speed=   1x    frame= 2858 fps= 10 q=-0.0 size=N/A time=00:04:45.70 bitrate=N/A speed=   1x    frame= 2863 fps= 10 q=-0.0 size=N/A time=00:04:46.20 bitrate=N/A speed=   1x    frame= 2869 fps= 10 q=-0.0 size=N/A time=00:04:46.80 bitrate=N/A speed=   1x    frame= 2875 fps= 10 q=-0.0 size=N/A time=00:04:47.40 bitrate=N/A speed=   1x    [hls @ 0x64b7b0cae580] Opening '/home/user/vnc-hls/hls/lane2/segment_20250603-131228.ts' for writing
[hls @ 0x64b7b0cae580] Opening '/home/user/vnc-hls/hls/lane2/stream.m3u8.tmp' for writing
frame= 2881 fps= 10 q=-0.0 size=N/A time=00:04:48.00 bitrate=N/A speed=   1x    frame= 2887 fps= 10 q=-0.0 size=N/A time=00:04:48.60 bitrate=N/A speed=   1x    frame= 2892 fps= 10 q=-0.0 size=N/A time=00:04:49.10 bitrate=N/A speed=   1x    frame= 2898 fps= 10 q=-0.0 size=N/A time=00:04:49.70 bitrate=N/A speed=   1x    frame= 2904 fps= 10 q=-0.0 size=N/A time=00:04:50.30 bitrate=N/A speed=   1x    frame= 2909 fps= 10 q=-0.0 size=N/A time=00:04:50.80 bitrate=N/A speed=   1x    frame= 2914 fps= 10 q=-0.0 size=N/A time=00:04:51.30 bitrate=N/A speed=   1x    frame= 2919 fps= 10 q=-0.0 size=N/A time=00:04:51.80 bitrate=N/A speed=   1x    frame= 2925 fps= 10 q=-0.0 size=N/A time=00:04:52.40 bitrate=N/A speed=   1x    frame= 2931 fps= 10 q=-0.0 size=N/A time=00:04:53.00 bitrate=N/A speed=   1x    frame= 2937 fps= 10 q=-0.0 size=N/A time=00:04:53.60 bitrate=N/A speed=   1x    [hls @ 0x64b7b0cae580] Opening '/home/user/vnc-hls/hls/lane2/segment_20250603-131231.ts' for writing
[hls @ 0x64b7b0cae580] Opening '/home/user/vnc-hls/hls/lane2/stream.m3u8.tmp' for writing
frame= 2943 fps= 10 q=-0.0 size=N/A time=00:04:54.20 bitrate=N/A speed=   1x    frame= 2948 fps= 10 q=-0.0 size=N/A time=00:04:54.70 bitrate=N/A speed=   1x    frame= 2953 fps= 10 q=-0.0 size=N/A time=00:04:55.20 bitrate=N/A speed=   1x    frame= 2959 fps= 10 q=-0.0 size=N/A time=00:04:55.80 bitrate=N/A speed=   1x    frame= 2965 fps= 10 q=-0.0 size=N/A time=00:04:56.40 bitrate=N/A speed=   1x    frame= 2970 fps= 10 q=-0.0 size=N/A time=00:04:56.90 bitrate=N/A speed=   1x    [hls @ 0x64b7b0cae580] Opening '/home/user/vnc-hls/hls/lane2/segment_20250603-131237.ts' for writing
[hls @ 0x64b7b0cae580] Opening '/home/user/vnc-hls/hls/lane2/stream.m3u8.tmp' for writing
frame= 2976 fps= 10 q=-0.0 size=N/A time=00:04:57.50 bitrate=N/A speed=   1x    frame= 2981 fps= 10 q=-0.0 size=N/A time=00:04:58.00 bitrate=N/A speed=   1x    frame= 2986 fps= 10 q=-0.0 size=N/A time=00:04:58.50 bitrate=N/A speed=   1x    frame= 2992 fps= 10 q=-0.0 size=N/A time=00:04:59.10 bitrate=N/A speed=   1x    frame= 2998 fps= 10 q=-0.0 size=N/A time=00:04:59.70 bitrate=N/A speed=   1x    [hls @ 0x64b7b0cae580] Opening '/home/user/vnc-hls/hls/lane2/segment_20250603-131240.ts' for writing
[hls @ 0x64b7b0cae580] Opening '/home/user/vnc-hls/hls/lane2/stream.m3u8.tmp' for writing
frame= 3003 fps= 10 q=-0.0 size=N/A time=00:05:00.20 bitrate=N/A speed=   1x    frame= 3008 fps= 10 q=-0.0 size=N/A time=00:05:00.70 bitrate=N/A speed=   1x    frame= 3014 fps= 10 q=-0.0 size=N/A time=00:05:01.30 bitrate=N/A speed=   1x    frame= 3020 fps= 10 q=-0.0 size=N/A time=00:05:01.90 bitrate=N/A speed=   1x    frame= 3026 fps= 10 q=-0.0 size=N/A time=00:05:02.50 bitrate=N/A speed=   1x    frame= 3032 fps= 10 q=-0.0 size=N/A time=00:05:03.10 bitrate=N/A speed=   1x    frame= 3037 fps= 10 q=-0.0 size=N/A time=00:05:03.60 bitrate=N/A speed=   1x    frame= 3043 fps= 10 q=-0.0 size=N/A time=00:05:04.20 bitrate=N/A speed=   1x    frame= 3049 fps= 10 q=-0.0 size=N/A time=00:05:04.80 bitrate=N/A speed=   1x    frame= 3054 fps= 10 q=-0.0 size=N/A time=00:05:05.30 bitrate=N/A speed=   1x    frame= 3059 fps= 10 q=-0.0 size=N/A time=00:05:05.80 bitrate=N/A speed=   1x    [hls @ 0x64b7b0cae580] Opening '/home/user/vnc-hls/hls/lane2/segment_20250603-131243.ts' for writing
[hls @ 0x64b7b0cae580] Opening '/home/user/vnc-hls/hls/lane2/stream.m3u8.tmp' for writing
frame= 3064 fps= 10 q=-0.0 size=N/A time=00:05:06.30 bitrate=N/A speed=   1x    frame= 3070 fps= 10 q=-0.0 size=N/A time=00:05:06.90 bitrate=N/A speed=   1x    frame= 3076 fps= 10 q=-0.0 size=N/A time=00:05:07.50 bitrate=N/A speed=   1x    frame= 3081 fps= 10 q=-0.0 size=N/A time=00:05:08.00 bitrate=N/A speed=   1x    frame= 3087 fps= 10 q=-0.0 size=N/A time=00:05:08.60 bitrate=N/A speed=   1x    [hls @ 0x64b7b0cae580] Opening '/home/user/vnc-hls/hls/lane2/segment_20250603-131249.ts' for writing
[hls @ 0x64b7b0cae580] Opening '/home/user/vnc-hls/hls/lane2/stream.m3u8.tmp' for writing
frame= 3092 fps= 10 q=-0.0 size=N/A time=00:05:09.10 bitrate=N/A speed=   1x    frame= 3098 fps= 10 q=-0.0 size=N/A time=00:05:09.70 bitrate=N/A speed=   1x    frame= 3104 fps= 10 q=-0.0 size=N/A time=00:05:10.30 bitrate=N/A speed=   1x    frame= 3109 fps= 10 q=-0.0 size=N/A time=00:05:10.80 bitrate=N/A speed=   1x    frame= 3114 fps= 10 q=-0.0 size=N/A time=00:05:11.30 bitrate=N/A speed=   1x    frame= 3119 fps= 10 q=-0.0 size=N/A time=00:05:11.80 bitrate=N/A speed=   1x    [hls @ 0x64b7b0cae580] Opening '/home/user/vnc-hls/hls/lane2/segment_20250603-131252.ts' for writing
[hls @ 0x64b7b0cae580] Opening '/home/user/vnc-hls/hls/lane2/stream.m3u8.tmp' for writing
frame= 3124 fps= 10 q=-0.0 size=N/A time=00:05:12.30 bitrate=N/A speed=   1x    frame= 3130 fps= 10 q=-0.0 size=N/A time=00:05:12.90 bitrate=N/A speed=   1x    frame= 3136 fps= 10 q=-0.0 size=N/A time=00:05:13.50 bitrate=N/A speed=   1x    frame= 3141 fps= 10 q=-0.0 size=N/A time=00:05:14.00 bitrate=N/A speed=   1x    frame= 3147 fps= 10 q=-0.0 size=N/A time=00:05:14.60 bitrate=N/A speed=   1x    frame= 3153 fps= 10 q=-0.0 size=N/A time=00:05:15.20 bitrate=N/A speed=   1x    frame= 3158 fps= 10 q=-0.0 size=N/A time=00:05:15.70 bitrate=N/A speed=   1x    frame= 3164 fps= 10 q=-0.0 size=N/A time=00:05:16.30 bitrate=N/A speed=   1x    frame= 3169 fps= 10 q=-0.0 size=N/A time=00:05:16.80 bitrate=N/A speed=   1x    frame= 3175 fps= 10 q=-0.0 size=N/A time=00:05:17.40 bitrate=N/A speed=   1x    [hls @ 0x64b7b0cae580] Opening '/home/user/vnc-hls/hls/lane2/segment_20250603-131255.ts' for writing
[hls @ 0x64b7b0cae580] Opening '/home/user/vnc-hls/hls/lane2/stream.m3u8.tmp' for writing
frame= 3181 fps= 10 q=-0.0 size=N/A time=00:05:18.00 bitrate=N/A speed=   1x    frame= 3187 fps= 10 q=-0.0 size=N/A time=00:05:18.60 bitrate=N/A speed=   1x    frame= 3193 fps= 10 q=-0.0 size=N/A time=00:05:19.20 bitrate=N/A speed=   1x    frame= 3199 fps= 10 q=-0.0 size=N/A time=00:05:19.80 bitrate=N/A speed=   1x    frame= 3205 fps= 10 q=-0.0 size=N/A time=00:05:20.40 bitrate=N/A speed=   1x    frame= 3210 fps= 10 q=-0.0 size=N/A time=00:05:20.90 bitrate=N/A speed=   1x    [hls @ 0x64b7b0cae580] Opening '/home/user/vnc-hls/hls/lane2/segment_20250603-131301.ts' for writing
[hls @ 0x64b7b0cae580] Opening '/home/user/vnc-hls/hls/lane2/stream.m3u8.tmp' for writing
frame= 3216 fps= 10 q=-0.0 size=N/A time=00:05:21.50 bitrate=N/A speed=   1x    frame= 3222 fps= 10 q=-0.0 size=N/A time=00:05:22.10 bitrate=N/A speed=   1x    